<?xml version="1.0" encoding="UTF-8" standalone="no"?>
<!-- Created with Inkscape (http://www.inkscape.org/) -->

<svg
   xmlns:dc="http://purl.org/dc/elements/1.1/"
   xmlns:cc="http://creativecommons.org/ns#"
   xmlns:rdf="http://www.w3.org/1999/02/22-rdf-syntax-ns#"
   xmlns:svg="http://www.w3.org/2000/svg"
   xmlns="http://www.w3.org/2000/svg"
   xmlns:sodipodi="http://sodipodi.sourceforge.net/DTD/sodipodi-0.dtd"
   xmlns:inkscape="http://www.inkscape.org/namespaces/inkscape"
   id="svg2985"
   version="1.1"
   inkscape:version="0.48.4 r9939"
   width="745"
   height="1053"
   xml:space="preserve"
   sodipodi:docname="couvertureBis.pdf"><metadata
     id="metadata2991"><rdf:RDF><cc:Work
         rdf:about=""><dc:format>image/svg+xml</dc:format><dc:type
           rdf:resource="http://purl.org/dc/dcmitype/StillImage" /><dc:title></dc:title></cc:Work></rdf:RDF></metadata><defs
     id="defs2989" /><sodipodi:namedview
     pagecolor="#ffffff"
     bordercolor="#666666"
     borderopacity="1"
     objecttolerance="10"
     gridtolerance="10"
     guidetolerance="10"
     inkscape:pageopacity="0"
     inkscape:pageshadow="2"
     inkscape:window-width="1366"
     inkscape:window-height="705"
     id="namedview2987"
     showgrid="false"
     inkscape:zoom="0.695691"
     inkscape:cx="549.68547"
     inkscape:cy="621.42031"
     inkscape:window-x="-8"
     inkscape:window-y="-8"
     inkscape:window-maximized="1"
     inkscape:current-layer="g2995" /><g
     id="g2993"
     inkscape:groupmode="layer"
     inkscape:label="couvertureBis"
     transform="matrix(1.25,0,0,-1.25,0,1053)"><g
       id="g2995"><g
         id="g3125"
         transform="matrix(1,0,0,0.68216424,0,-33.724421)"><g
           transform="matrix(1,0,0,-1,0,637.60002)"
           id="g2997"><path
             inkscape:connector-curvature="0"
             id="path2999"
             style="fill:none;stroke:#4e4e4e;stroke-width:1.15875006;stroke-linecap:butt;stroke-linejoin:miter;stroke-miterlimit:4;stroke-opacity:1;stroke-dasharray:none"
             d="m 385.414,712.898 0,-391.089" /></g><g
           transform="matrix(1,0,0,-1,0,637.60002)"
           id="g3001"><path
             inkscape:connector-curvature="0"
             id="path3003"
             style="fill:none;stroke:#c8d20b;stroke-width:0.52401799;stroke-linecap:butt;stroke-linejoin:miter;stroke-miterlimit:4;stroke-opacity:1;stroke-dasharray:none"
             d="M 782.746,396.055 C 720.496,361.832 663.965,293.617 584.398,295.41 c -91.414,2.059 -136.574,60.852 -198.984,107.836 -83.852,63.125 -149.223,9.02 -239.844,-7.051 -72.285,-12.816 -135.3,25.75 -178.222,74.418" /></g><g
           transform="matrix(1,0,0,-1,0,637.60002)"
           id="g3005"><path
             inkscape:connector-curvature="0"
             id="path3007"
             style="fill:none;stroke:#f29405;stroke-width:0.52401799;stroke-linecap:butt;stroke-linejoin:miter;stroke-miterlimit:4;stroke-opacity:1;stroke-dasharray:none"
             d="m -51.113,499.934 c 19.593,-72.414 96.89,-130.688 172.383,-160.84 92.082,-36.778 171.312,-33.582 234.257,35.566 0.004,0.008 0.012,0.016 0.02,0.024 38.375,42.156 100.004,86.945 162.969,97.918 73.203,12.753 142.105,-25.856 196.285,-63.692" /></g><g
           transform="matrix(1,0,0,-1,0,637.60002)"
           id="g3009"><path
             inkscape:connector-curvature="0"
             id="path3011"
             style="fill:none;stroke:#62c5ed;stroke-width:0.52401799;stroke-linecap:butt;stroke-linejoin:miter;stroke-miterlimit:4;stroke-opacity:1;stroke-dasharray:none"
             d="M 695.621,567.148 C 673.52,440.852 477.406,375.949 350.016,410.133 298.641,423.922 250.852,440.715 196.285,436.961 61.688,427.703 61.926,372.938 -4.297,286.535" /></g><g
           transform="matrix(1,0,0,-1,0,637.60002)"
           id="g3013"><path
             inkscape:connector-curvature="0"
             id="path3015"
             style="fill:none;stroke:#b5047c;stroke-width:0.52401799;stroke-linecap:butt;stroke-linejoin:miter;stroke-miterlimit:4;stroke-opacity:1;stroke-dasharray:none"
             d="M 615.836,393.215 C 540.129,334.711 423.031,360.34 363.301,422.707 257.809,532.852 133.379,619.301 -44.461,545.742" /></g></g><g
         id="g3137"
         transform="matrix(0.66805907,0,0,0.66805907,194.54512,3.4973358)"><path
           inkscape:connector-curvature="0"
           id="path3081"
           style="fill:#4e4e4e;fill-opacity:1;fill-rule:nonzero;stroke:none"
           d="m 478.59858,30.799244 -11.215,0 4.032,17.148003 11.234,0 -4.051,-17.148003 z" /><path
           inkscape:connector-curvature="0"
           id="path3083"
           style="fill:#212966;fill-opacity:1;fill-rule:nonzero;stroke:none"
           d="m 493.70058,38.556244 -11.098,0 7.578,32.204003 11.094,0 -7.574,-32.204003 z" /><path
           inkscape:connector-curvature="0"
           id="path3085"
           style="fill:#212966;fill-opacity:1;fill-rule:nonzero;stroke:none"
           d="m 570.81758,62.256247 -2.168,-9.758 8.66,-0.094 c 1.613,9.168 -6.492,9.852 -6.492,9.852 m 14.961,-10.883 -3.094,-12.817003 -8.633,0 1.457,6.164 -8.672,0.106 -1.476,-6.266 -9.754,0 7.574,32.200003 c 0,0 25.988,1.453 22.598,-19.387" /><path
           inkscape:connector-curvature="0"
           id="path3087"
           style="fill:#4e4e4e;fill-opacity:1;fill-rule:nonzero;stroke:none"
           d="m 476.72358,50.181247 -13.48,0 3.597,15.36 13.489,0 -3.606,-15.36 z" /><path
           inkscape:connector-curvature="0"
           id="path3089"
           style="fill:#4e4e4e;fill-opacity:1;fill-rule:nonzero;stroke:none"
           d="m 459.53658,60.252247 -11.114,0 3.297,13.922 11.106,0 -3.289,-13.922 z" /><path
           inkscape:connector-curvature="0"
           id="path3091"
           style="fill:#4e4e4e;fill-opacity:1;fill-rule:nonzero;stroke:none"
           d="m 443.59458,55.662247 -9.59,0 2.887,12.266 9.578,0 -2.875,-12.266 z" /><path
           inkscape:connector-curvature="0"
           id="path3093"
           style="fill:#4e4e4e;fill-opacity:1;fill-rule:nonzero;stroke:none"
           d="m 475.60258,72.752247 c -1.957,-4.215 -5.941,-6.516 -8.894,-5.137 -2.965,1.367 -3.782,5.906 -1.832,10.113 1.964,4.211 5.945,6.5 8.898,5.125 2.965,-1.375 3.785,-5.894 1.828,-10.101" /><path
           inkscape:connector-curvature="0"
           id="path3095"
           style="fill:#4e4e4e;fill-opacity:1;fill-rule:nonzero;stroke:none"
           d="m 506.91158,80.951247 c -2.774,-5.957 -8.739,-9.063 -13.325,-6.926 -4.589,2.137 -6.074,8.688 -3.289,14.653 2.758,5.953 8.715,9.058 13.313,6.917 4.594,-2.128 6.07,-8.687 3.301,-14.644" /><path
           inkscape:connector-curvature="0"
           id="path3097"
           style="fill:#4e4e4e;fill-opacity:1;fill-rule:nonzero;stroke:none"
           d="m 431.93058,68.865247 c -2.32,-2.301 -5.637,-2.703 -7.39,-0.922 -1.75,1.785 -1.293,5.09 1.046,7.375 2.329,2.297 5.633,2.695 7.387,0.918 1.766,-1.777 1.297,-5.09 -1.043,-7.371" /><path
           inkscape:connector-curvature="0"
           id="path3099"
           style="fill:#4e4e4e;fill-opacity:1;fill-rule:nonzero;stroke:none"
           d="m 457.43058,23.013244 c -3.133,-3.429 -7.867,-4.199 -10.558,-1.726 -2.696,2.484 -2.34,7.25 0.8,10.672 3.133,3.418 7.86,4.191 10.551,1.719 2.699,-2.461 2.332,-7.243 -0.793,-10.665" /><path
           inkscape:connector-curvature="0"
           id="path3101"
           style="fill:#4e4e4e;fill-opacity:1;fill-rule:nonzero;stroke:none"
           d="m 444.01258,12.724244 c -2.547,-2.492 -6.168,-2.9210004 -8.105,-0.949 -1.942,1.988 -1.453,5.606 1.086,8.09 2.539,2.5 6.168,2.922 8.105,0.949 1.942,-1.965 1.453,-5.597 -1.086,-8.09" /><path
           inkscape:connector-curvature="0"
           id="path3103"
           style="fill:#4e4e4e;fill-opacity:1;fill-rule:nonzero;stroke:none"
           d="m 457.44258,41.228244 c -3.961,-4.625 -9.734,-6.203 -12.863,-3.508 -3.157,2.696 -2.493,8.629003 1.464,13.262003 3.957,4.633 9.731,6.203 12.868,3.508 3.16,-2.687 2.484,-8.629003 -1.469,-13.262003" /><path
           inkscape:connector-curvature="0"
           id="path3105"
           style="fill:#4e4e4e;fill-opacity:1;fill-rule:nonzero;stroke:none"
           d="m 443.67258,55.662247 -9.839,0 2.894,12.324 9.836,0 -2.891,-12.324 z" /><path
           inkscape:connector-curvature="0"
           id="path3107"
           style="fill:#212966;fill-opacity:1;fill-rule:nonzero;stroke:none"
           d="m 525.95058,70.760247 -3.028,-12.883 c -4.855,10.73 -14.234,12.523 -17.187,12.816 0,0 -0.613,0.051 -0.695,0.051 l -0.032,0.008 -0.175,0.008 -0.012,0 -7.574,-32.200003 9.523,0 4.566,19.016003 c 2.149,-1.082 7.586,-4.652 8.286,-13.488003 0.125,-1.645 0.097,-3.489 -0.161,-5.528 l 0.211,0 7.672,0 7.59,32.200003 -8.984,0 z" /><path
           inkscape:connector-curvature="0"
           id="path3109"
           style="fill:#212966;fill-opacity:1;fill-rule:nonzero;stroke:none"
           d="m 540.45058,67.678247 c -0.926,-1.219 -1.696,-2.778 -1.805,-4.305 -0.176,-2.203 0.734,-4.438 2.016,-6.195 1.172,-1.602 3.043,-2.758 4.086,-4.434 1.746,-2.832 -0.954,-6.004 -4.004,-5.981 -2.817,0.036 -5.399,2.387 -7.145,4.598 l -2.094,-8.891003 c 1.872,-1.257 6.618,-4.585 13.2,-3.46 0,0 8.492,1.375 10.191,9.339003 0.434,2.094 -0.367,4.336 -1.617,6.004 -1.621,2.145 -5.137,4.137 -5.074,7.172 0.031,0.758 0.875,1.742 1.531,2.016 0.773,0.308 1.648,0.133 2.367,-0.203 1.219,-0.547 2.203,-1.481 3.102,-2.465 l 1.562,6.648 c -11.035,6.938 -16.316,0.157 -16.316,0.157" /><path
           inkscape:connector-curvature="0"
           id="path3111"
           style="fill:#4e4e4e;fill-opacity:1;fill-rule:nonzero;stroke:none"
           d="m 492.92658,17.951244 2.75,0.008 1.188,4.996 3.226,0.004 c 1.45,0 2.899,0.008 2.942,-1.399 0.019,-0.882 -0.211,-1.757 -0.188,-2.652 0.008,-0.336 0.055,-0.629 0.196,-0.93 l 2.839,0.004 c -0.242,0.301 -0.304,0.66 -0.304,1 -0.047,0.832 0.187,1.684 0.175,2.512 -0.031,1.008 -0.406,1.82 -1.71,2.191 l 0,0.028 c 2.171,0.316 3.464,1.386 3.41,3.308 -0.078,2.953 -3.629,3.086 -4.953,3.074 l -6.7,-0.007 -2.871,-12.137 z m 5.215,10.402 3.797,0.012 c 1.426,0.004 2.773,-0.25 2.816,-1.578 0.036,-1.406 -1.242,-2.203 -3.539,-2.215 l -3.968,-0.004 0.894,3.785 z" /><path
           inkscape:connector-curvature="0"
           id="path3113"
           style="fill:#4e4e4e;fill-opacity:1;fill-rule:nonzero;stroke:none"
           d="m 511.61458,23.002244 c 0.082,-3.004 2.59,-5.289 7.019,-5.285 4.133,0.019 8.117,2.328 7.977,7.429 -0.078,3.098 -2.832,5.285 -6.902,5.278 -4.032,-0.008 -8.231,-2.329 -8.094,-7.422 m 2.703,0.074 c -0.074,2.695 1.668,5.605 5.348,5.621 2.714,0 4.179,-1.375 4.242,-3.629 0.074,-2.699 -1.664,-5.613 -5.242,-5.621 -2.707,0 -4.289,1.367 -4.348,3.629" /><path
           inkscape:connector-curvature="0"
           id="path3115"
           style="fill:#4e4e4e;fill-opacity:1;fill-rule:nonzero;stroke:none"
           d="m 533.36858,30.166244 2.699,0 -1.789,-7.418 c -0.074,-0.32 -0.129,-0.649 -0.149,-0.988 0.008,-1.625 1.497,-2.172 3.379,-2.165 2.035,0 3.559,0.618 4.164,3.114 l 1.836,7.469 2.7,0.015 -1.817,-7.609 c -0.496,-2.016 -1.519,-4.813 -7.133,-4.828 -3.054,-0.004 -5.754,1.187 -5.82,3.722 -0.023,0.567 0.074,1.09 0.207,1.629 l 1.723,7.059 z" /><path
           inkscape:connector-curvature="0"
           id="path3117"
           style="fill:#4e4e4e;fill-opacity:1;fill-rule:nonzero;stroke:none"
           d="m 549.44258,18.076244 2.871,12.129 11.27,0.019 -0.426,-1.836 -8.598,-0.015 -0.754,-3.176 7.969,0.023 -0.402,-1.742 -8,-0.015 -0.836,-3.551 8.664,0.019 -0.426,-1.832 -11.332,-0.023 z" /><path
           inkscape:connector-curvature="0"
           id="path3119"
           style="fill:#4e4e4e;fill-opacity:1;fill-rule:nonzero;stroke:none"
           d="m 566.02058,18.107244 2.871,12.125 2.965,0.012 4.996,-9.039 0.039,0 2.121,9.051 2.703,0.007 -2.867,-12.128 -2.969,-0.004 -5.015,8.992 -0.039,0 -2.102,-9.008 -2.703,-0.008 z" /></g><g
         id="g3121"
         transform="matrix(1,0,0,-0.77673454,0,862.75113)"><path
           d="m -3.031,-58.008 c 79.746,-58.5 203.093,-32.871 266.008,29.492 111.121,110.137 242.187,196.582 429.519,123.028"
           style="fill:none;stroke:#b5047c;stroke-width:0.53779799;stroke-linecap:butt;stroke-linejoin:miter;stroke-miterlimit:4;stroke-opacity:1;stroke-dasharray:none"
           id="path3123"
           inkscape:connector-curvature="0" /></g></g></g></svg>