<?xml version="1.0" encoding="UTF-8" standalone="no"?>
<!-- Created with Inkscape (http://www.inkscape.org/) -->

<svg
   xmlns:dc="http://purl.org/dc/elements/1.1/"
   xmlns:cc="http://creativecommons.org/ns#"
   xmlns:rdf="http://www.w3.org/1999/02/22-rdf-syntax-ns#"
   xmlns:svg="http://www.w3.org/2000/svg"
   xmlns="http://www.w3.org/2000/svg"
   xmlns:sodipodi="http://sodipodi.sourceforge.net/DTD/sodipodi-0.dtd"
   xmlns:inkscape="http://www.inkscape.org/namespaces/inkscape"
   id="svg2985"
   version="1.1"
   inkscape:version="0.48.4 r9939"
   width="817.81875"
   height="214.09625"
   xml:space="preserve"
   sodipodi:docname="insaBlanc.svg"
   inkscape:export-filename="C:\Users\Thomas\Downloads\insaBlanc.png"
   inkscape:export-xdpi="115.67"
   inkscape:export-ydpi="115.67"><metadata
     id="metadata2991"><rdf:RDF><cc:Work
         rdf:about=""><dc:format>image/svg+xml</dc:format><dc:type
           rdf:resource="http://purl.org/dc/dcmitype/StillImage" /><dc:title></dc:title></cc:Work></rdf:RDF></metadata><defs
     id="defs2989"><clipPath
       clipPathUnits="userSpaceOnUse"
       id="clipPath2999"><path
         d="m 0,171.277 654.255,0 L 654.255,0 0,0 0,171.277 z"
         id="path3001" /></clipPath></defs><sodipodi:namedview
     pagecolor="#ffffff"
     bordercolor="#666666"
     borderopacity="1"
     objecttolerance="10"
     gridtolerance="10"
     guidetolerance="10"
     inkscape:pageopacity="0"
     inkscape:pageshadow="2"
     inkscape:window-width="1366"
     inkscape:window-height="705"
     id="namedview2987"
     showgrid="false"
     inkscape:zoom="0.85838093"
     inkscape:cx="593.7913"
     inkscape:cy="249.71661"
     inkscape:window-x="-8"
     inkscape:window-y="-8"
     inkscape:window-maximized="1"
     inkscape:current-layer="g2997" /><g
     id="g2993"
     inkscape:groupmode="layer"
     inkscape:label="Logo_INSAROUEN2014"
     transform="matrix(1.25,0,0,-1.25,0,214.09625)"><g
       id="g2995"><g
         id="g2997"
         clip-path="url(#clipPath2999)"><path
           d="m 399.661,125.099 2.771,0 0,22.487 -2.771,0 0,-22.487 z m 6.457,0 2.772,0 0,18.204 0.063,0 7.212,-18.204 3.812,0 0,22.486 -2.773,0 0,-18.771 -0.062,0 -7.433,18.771 -3.591,0 0,-22.486 z m 29.891,16.66 c -0.062,4.126 -2.015,6.268 -6.298,6.268 -5.701,0 -6.583,-4.127 -6.583,-6.205 0,-8.251 10.614,-4.566 10.614,-10.928 0,-2.394 -1.701,-3.968 -3.905,-3.968 -4.063,0 -4.221,2.708 -4.221,5.228 l -2.771,0 c 0,-4.787 1.543,-7.496 6.803,-7.496 3.181,0 6.992,1.48 6.992,6.676 0,8.221 -10.614,4.441 -10.614,10.771 0,2.394 1.386,3.654 3.716,3.654 2.646,0 3.496,-1.638 3.496,-4 l 2.771,0 z m 10.396,3.369 5.669,0 0,2.457 -14.077,0 0,-2.457 5.637,0 0,-20.029 2.771,0 0,20.029 z m 8.034,-20.029 2.771,0 0,22.487 -2.771,0 0,-22.487 z m 13.512,20.029 5.669,0 0,2.457 -14.078,0 0,-2.457 5.638,0 0,-20.029 2.771,0 0,20.029 z m 7.908,-13.353 c 0,-4.629 2.079,-7.117 6.582,-7.117 4.41,0 6.614,2.802 6.614,7.117 l 0,15.81 -2.771,0 0,-15.81 c 0,-3.15 -0.882,-4.849 -3.843,-4.849 -2.74,0 -3.811,1.543 -3.811,4.849 l 0,15.81 -2.771,0 0,-15.81 z m 23.844,13.353 5.669,0 0,2.457 -14.078,0 0,-2.457 5.639,0 0,-20.029 2.77,0 0,20.029 z m 15.31,-20.029 2.772,0 0,18.204 0.064,0 7.212,-18.204 3.81,0 0,22.486 -2.772,0 0,-18.771 -0.063,0 -7.432,18.771 -3.591,0 0,-22.486 z m 16.004,0 2.896,0 1.669,6.172 7.181,0 1.606,-6.172 2.899,0 -6.048,22.486 -3.716,0 -6.487,-22.486 z m 8.251,19.306 0.062,0 2.866,-10.866 -6.047,0 3.119,10.866 z m 15.025,0.723 5.669,0 0,2.457 -14.078,0 0,-2.457 5.637,0 0,-20.029 2.772,0 0,20.029 z m 8.033,-20.029 2.771,0 0,22.487 -2.771,0 0,-22.487 z m 13.292,22.928 c -6.204,0 -7.244,-6.016 -7.244,-11.685 0,-5.669 1.04,-11.684 7.244,-11.684 6.204,0 7.244,6.015 7.244,11.684 0,5.669 -1.04,11.685 -7.244,11.685 m 0,-2.268 c 3.842,0 4.346,-4.22 4.346,-9.417 0,-5.196 -0.504,-9.416 -4.346,-9.416 -3.842,0 -4.346,4.22 -4.346,9.416 0,5.197 0.504,9.417 4.346,9.417 m 10.522,-20.66 2.772,0 0,18.204 0.064,0 7.212,-18.204 3.81,0 0,22.486 -2.771,0 0,-18.771 -0.064,0 -7.432,18.771 -3.591,0 0,-22.486 z m 16.004,0 2.896,0 1.669,6.172 7.181,0 1.606,-6.172 2.899,0 -6.048,22.486 -3.717,0 -6.486,-22.486 z m 8.251,19.306 0.062,0 2.866,-10.866 -6.047,0 3.119,10.866 z m 10.112,-19.306 11.904,0 0,2.457 -9.133,0 0,20.029 -2.771,0 0,-22.486 z"
           style="fill:#565353;fill-opacity:1;fill-rule:nonzero;stroke:none"
           id="path3003" /><g
           id="g3005"
           transform="translate(402.7158,110.3213)"><path
             d="m 0,0 2.897,0 c 5.041,0 5.323,-4.661 5.323,-9.007 0,-4.032 -0.534,-8.945 -5.323,-8.945 L 0,-17.952 0,0 z m -2.771,-20.219 6.298,0 c 6.173,0 7.59,5.574 7.59,11.243 0,6.205 -0.881,11.244 -7.873,11.244 l -6.015,0 0,-22.487 z m 17.136,0 11.999,0 0,2.456 -9.228,0 0,8.063 8.346,0 0,2.456 -8.346,0 0,7.055 8.85,0 0,2.457 -11.621,0 0,-22.487 z m 27.025,16.66 c -0.064,4.126 -2.016,6.267 -6.3,6.267 -5.699,0 -6.582,-4.125 -6.582,-6.204 0,-8.251 10.614,-4.567 10.614,-10.928 0,-2.394 -1.701,-3.969 -3.906,-3.969 -4.062,0 -4.22,2.709 -4.22,5.228 l -2.77,0 c 0,-4.787 1.543,-7.495 6.801,-7.495 3.181,0 6.993,1.48 6.993,6.677 0,8.22 -10.614,4.44 -10.614,10.771 0,2.393 1.385,3.653 3.716,3.653 2.646,0 3.496,-1.638 3.496,-4 l 2.772,0 z m 23.309,0 c -0.063,4.126 -2.014,6.267 -6.298,6.267 -5.701,0 -6.583,-4.125 -6.583,-6.204 0,-8.251 10.615,-4.567 10.615,-10.928 0,-2.394 -1.702,-3.969 -3.906,-3.969 -4.063,0 -4.22,2.709 -4.22,5.228 l -2.772,0 c 0,-4.787 1.543,-7.495 6.803,-7.495 3.181,0 6.991,1.48 6.991,6.677 0,8.22 -10.613,4.44 -10.613,10.771 0,2.393 1.386,3.653 3.717,3.653 2.645,0 3.495,-1.638 3.495,-4 l 2.771,0 z m 14.27,-8.944 c -0.094,-2.74 -0.567,-5.89 -3.937,-5.89 -3.842,0 -4.345,4.221 -4.345,9.417 0,5.197 0.503,9.417 4.345,9.417 2.866,0 3.685,-2.173 3.748,-4.724 l 2.898,0 c -0.126,4.409 -2.047,6.991 -6.646,6.991 -6.204,0 -7.243,-6.015 -7.243,-11.684 0,-5.669 0.851,-11.684 7.243,-11.684 4.913,0 6.583,3.905 6.835,8.157 l -2.898,0 z m 5.547,-7.716 2.771,0 0,22.487 -2.771,0 0,-22.487 z m 6.457,0 12,0 0,2.456 -9.229,0 0,8.063 8.346,0 0,2.456 -8.346,0 0,7.055 8.85,0 0,2.457 -11.621,0 0,-22.487 z m 14.615,0 2.772,0 0,18.203 0.063,0 7.212,-18.203 3.811,0 0,22.487 -2.772,0 0,-18.771 -0.063,0 -7.431,18.771 -3.592,0 0,-22.487 z m 28.317,7.716 c -0.094,-2.74 -0.567,-5.89 -3.937,-5.89 -3.842,0 -4.346,4.221 -4.346,9.417 0,5.197 0.504,9.417 4.346,9.417 2.866,0 3.685,-2.173 3.748,-4.724 l 2.897,0 c -0.126,4.409 -2.047,6.991 -6.645,6.991 -6.204,0 -7.243,-6.015 -7.243,-11.684 0,-5.669 0.85,-11.684 7.243,-11.684 4.913,0 6.582,3.905 6.834,8.157 l -2.897,0 z m 5.546,-7.716 11.999,0 0,2.456 -9.227,0 0,8.063 8.345,0 0,2.456 -8.345,0 0,7.055 8.849,0 0,2.457 -11.621,0 0,-22.487 z m 27.025,16.66 c -0.064,4.126 -2.016,6.267 -6.299,6.267 -5.7,0 -6.583,-4.125 -6.583,-6.204 0,-8.251 10.614,-4.567 10.614,-10.928 0,-2.394 -1.701,-3.969 -3.905,-3.969 -4.063,0 -4.221,2.709 -4.221,5.228 l -2.77,0 c 0,-4.787 1.542,-7.495 6.802,-7.495 3.18,0 6.991,1.48 6.991,6.677 0,8.22 -10.613,4.44 -10.613,10.771 0,2.393 1.385,3.653 3.716,3.653 2.646,0 3.496,-1.638 3.496,-4 l 2.772,0 z"
             style="fill:#565353;fill-opacity:1;fill-rule:nonzero;stroke:none"
             id="path3007" /></g><g
           id="g3009"
           transform="translate(397.582,55.1055)"><path
             d="m 0,0 2.897,0 1.67,6.173 7.18,0 1.607,-6.173 2.897,0 -6.047,22.487 -3.716,0 L 0,0 z m 8.251,19.307 0.063,0 2.867,-10.867 -6.046,0 3.116,10.867 z M 18.364,0 l 2.773,0 0,9.511 3.431,0 c 3.812,0 6.489,2.331 6.489,6.52 0,6.456 -5.007,6.456 -6.96,6.456 l -5.733,0 0,-22.487 z m 2.773,20.219 3.118,0 c 2.738,0 3.904,-1.606 3.904,-4.063 0,-2.991 -1.701,-4.377 -3.717,-4.377 l -3.305,0 0,8.44 z M 33.61,0 l 2.773,0 0,9.511 3.432,0 c 3.81,0 6.488,2.331 6.488,6.52 0,6.456 -5.007,6.456 -6.96,6.456 l -5.733,0 0,-22.487 z m 2.773,20.219 3.117,0 c 2.74,0 3.905,-1.606 3.905,-4.063 0,-2.991 -1.701,-4.377 -3.716,-4.377 l -3.306,0 0,8.44 z M 48.856,0 l 11.906,0 0,2.457 -9.134,0 0,20.03 -2.772,0 0,-22.487 z m 14.27,0 2.771,0 0,22.487 -2.771,0 0,-22.487 z m 19.434,-1.354 1.543,1.637 -2.269,2.079 c 1.481,2.268 1.827,5.638 1.827,8.881 0,5.669 -1.039,11.685 -7.244,11.685 -6.203,0 -7.242,-6.016 -7.242,-11.685 0,-5.669 1.039,-11.683 7.242,-11.683 1.607,0 2.898,0.409 3.874,1.133 L 82.56,-1.354 z M 78.465,2.362 C 77.93,2.017 77.236,1.827 76.417,1.827 c -3.842,0 -4.346,4.22 -4.346,9.416 0,5.197 0.504,9.417 4.346,9.417 3.844,0 4.348,-4.22 4.348,-9.417 0,-2.866 -0.159,-5.417 -0.852,-7.117 l -2.078,1.89 -1.544,-1.701 2.174,-1.953 z m 8.286,4.315 c 0,-4.63 2.078,-7.117 6.582,-7.117 4.409,0 6.614,2.802 6.614,7.117 l 0,15.81 -2.771,0 0,-15.81 c 0,-3.15 -0.883,-4.85 -3.843,-4.85 -2.739,0 -3.811,1.543 -3.811,4.85 l 0,15.81 -2.771,0 0,-15.81 z M 103.51,0 l 11.999,0 0,2.457 -9.229,0 0,8.063 8.346,0 0,2.457 -8.346,0 0,7.053 8.85,0 0,2.457 -11.62,0 0,-22.487 z m 4.282,23.715 1.89,0 3.401,4.473 -3.087,0 -2.204,-4.473 z M 118.124,0 l 12,0 0,2.457 -9.228,0 0,8.063 8.346,0 0,2.457 -8.346,0 0,7.053 8.85,0 0,2.457 -11.622,0 0,-22.487 z m 27.025,16.66 c -0.062,4.126 -2.015,6.268 -6.298,6.268 -5.701,0 -6.582,-4.126 -6.582,-6.204 0,-8.252 10.614,-4.567 10.614,-10.929 0,-2.394 -1.701,-3.968 -3.906,-3.968 -4.064,0 -4.22,2.708 -4.22,5.228 l -2.772,0 c 0,-4.786 1.543,-7.495 6.802,-7.495 3.182,0 6.992,1.479 6.992,6.676 0,8.22 -10.614,4.441 -10.614,10.771 0,2.393 1.387,3.653 3.718,3.653 2.644,0 3.495,-1.638 3.495,-4 l 2.771,0 z"
             style="fill:#565353;fill-opacity:1;fill-rule:nonzero;stroke:none"
             id="path3011" /></g><g
           id="g3013"
           transform="translate(404.7627,38.8799)"><path
             d="m 0,0 1.606,0 c 2.111,0 2.741,-1.134 2.741,-2.834 0,-1.323 -0.568,-2.93 -2.708,-2.93 L 0,-5.764 0,0 z m -5.291,-18.771 5.291,0 0,9.291 2.017,0 c 1.669,0 2.204,-0.819 2.204,-4.724 0,-2.551 0.158,-3.812 0.566,-4.567 l 5.701,0 0,0.284 c -0.756,0.315 -0.914,0.756 -1.008,5.196 -0.063,3.023 -0.251,5.134 -3.622,5.605 l 0,0.064 c 2.456,0.599 3.78,2.205 3.78,5.479 0,3.087 -1.543,5.859 -6.047,5.859 l -8.882,0 0,-22.487 z m 23.53,11.244 c 0,6.173 0.316,8.157 2.394,8.157 2.141,0 2.457,-1.984 2.457,-8.157 0,-6.173 -0.316,-8.158 -2.457,-8.158 -2.078,0 -2.394,1.985 -2.394,8.158 m 10.33,0 c 0,6.236 -0.41,11.684 -7.905,11.684 -6.96,0 -7.904,-4.535 -7.904,-11.684 0,-7.149 0.944,-11.684 7.904,-11.684 7.495,0 7.905,5.447 7.905,11.684 m 18.145,11.243 -5.291,0 0,-16.597 c 0,-1.765 -0.694,-2.804 -2.11,-2.804 -1.417,0 -2.111,1.039 -2.111,2.804 l 0,16.597 -5.291,0 0,-15.054 c 0,-4.409 1.261,-7.873 7.402,-7.873 6.14,0 7.401,3.464 7.401,7.873 l 0,15.054 z m 3.813,-22.487 13.355,0 0,4.284 -8.064,0 0,5.133 7.245,0 0,4.283 -7.245,0 0,4.504 7.716,0 0,4.283 -13.007,0 0,-22.487 z m 16.602,0 4.724,0 0,15.496 0.062,0 4.631,-15.496 5.982,0 0,22.487 -4.913,0 0,-14.613 -0.062,0 -4.347,14.613 -6.077,0 0,-22.487 z"
             style="fill:#565353;fill-opacity:1;fill-rule:nonzero;stroke:none"
             id="path3015" /></g><g
           id="g3017"
           transform="translate(375.6602,20.0801)"><path
             d="M 0,0 0,127.512 0,0 z"
             style="fill:#565353;fill-opacity:1;fill-rule:nonzero;stroke:none"
             id="path3019" /></g><path
           d="m 376.91,20.08 -2.5,0 0,127.512 2.5,0 0,-127.512 z"
           style="fill:#565353;fill-opacity:1;fill-rule:nonzero;stroke:none"
           id="path3021" /><path
           d="m 56.745,20.045 -33.356,0 0,127.487 33.356,0 0,-127.487 z"
           style="fill:#ee2922;fill-opacity:1;fill-rule:nonzero;stroke:none"
           id="path3023" /><g
           id="g3025"
           transform="translate(103.2012,147.5322)"><path
             d="m 0,0 21.525,-78.563 0.36,0 0,78.563 31.204,0 0,-127.487 -36.585,0 -22.238,78.735 -0.359,0 0,-78.735 -31.21,0 L -37.303,0 0,0 z"
             style="fill:#ee2922;fill-opacity:1;fill-rule:nonzero;stroke:none"
             id="path3027" /></g><g
           id="g3029"
           transform="translate(216.5684,113.7891)"><path
             d="m 0,0 c 0,3.806 -0.791,7.053 -2.342,9.725 -1.557,2.688 -3.95,4.021 -7.169,4.021 -3.593,0 -6.224,-1.159 -7.89,-3.482 -1.683,-2.319 -2.515,-4.904 -2.515,-7.771 0,-4.16 1.347,-7.469 4.035,-9.905 2.693,-2.442 6.066,-4.55 10.127,-6.335 4.071,-1.785 8.434,-3.601 13.103,-5.447 4.66,-1.852 9.026,-4.257 13.093,-7.238 4.063,-2.974 7.443,-6.873 10.131,-11.69 2.695,-4.821 4.039,-11.1 4.039,-18.84 0,-13.571 -3.886,-23.426 -11.656,-29.55 -7.779,-6.144 -19.019,-9.197 -33.727,-9.197 -6.934,0 -13.063,0.569 -18.39,1.693 -5.312,1.133 -9.805,3.098 -13.446,5.899 -3.65,2.79 -6.433,6.452 -8.336,10.987 -1.913,4.519 -2.867,10.115 -2.867,16.778 l 0,4.472 32.279,0 0,-3.046 c 0,-5.483 1.016,-9.315 3.047,-11.515 2.038,-2.211 4.662,-3.314 7.893,-3.314 3.473,0 6.117,1.2 7.987,3.575 1.847,2.38 2.78,5.288 2.78,8.756 0,4.153 -1.298,7.468 -3.864,9.9 -2.574,2.441 -5.799,4.529 -9.679,6.257 -3.891,1.718 -8.103,3.483 -12.642,5.268 -4.555,1.785 -8.771,4.103 -12.657,6.96 -3.885,2.863 -7.112,6.607 -9.682,11.26 -2.579,4.627 -3.857,10.71 -3.857,18.204 0,12.971 3.468,22.856 10.408,29.644 6.933,6.782 17.455,10.182 31.566,10.182 14.582,0 25.133,-3.129 31.656,-9.381 6.516,-6.248 9.779,-16.222 9.779,-29.912 L 0,-3.042 0,0 z"
             style="fill:#ee2922;fill-opacity:1;fill-rule:nonzero;stroke:none"
             id="path3031" /></g><g
           id="g3033"
           transform="translate(299.4292,121.4629)"><path
             d="m 0,0 -9.147,-54.095 18.655,0 L 0.346,0 0,0 z m 21.164,26.074 31.208,-127.492 -35.505,0 -3.416,22.314 -26.546,0 -3.41,-22.314 -34.975,0 30.676,127.492 41.968,0 z"
             style="fill:#ee2922;fill-opacity:1;fill-rule:nonzero;stroke:none"
             id="path3035" /></g><g
           id="g3037"
           transform="translate(329.2109,147.5938)"><path
             d="m 0,0 22.6,0 0,-95.736 L 0,0 z"
             style="fill:#565353;fill-opacity:1;fill-rule:nonzero;stroke:none"
             id="path3039" /></g></g></g></g></svg>